<?xml version="1.0" encoding="utf-8"?>
<!-- Generator: Adobe Illustrator 24.2.1, SVG Export Plug-In . SVG Version: 6.00 Build 0)  -->
<svg version="1.1" id="Layer_1" xmlns="http://www.w3.org/2000/svg" xmlns:xlink="http://www.w3.org/1999/xlink" x="0px" y="0px"
	 viewBox="0 0 500.7 153" style="enable-background:new 0 0 500.7 153;" xml:space="preserve">
<style type="text/css">
	.st0{fill:#646464;}
	.st1{fill:#23B355;}
	.st2{fill:#02ABAF;}
	.st3{fill:#4998D3;}
	.st4{fill:#8A288A;}
	.st5{fill:#ED1557;}
	.st6{fill:#F05223;}
	.st7{fill:#F7AA1B;}
	.st8{fill:#A6CE38;}
</style>
<path class="st0" d="M21.5,6v52.2c3.5-4.9,8.3-8.8,13.8-11.4c5.7-2.6,11.8-3.9,18.1-3.8c8.3-0.1,16.5,2,23.8,6.1
	c7,4,12.7,9.9,16.4,17c4,7.3,5.9,15.7,5.9,25.2s-2,17.9-5.9,25.3c-3.8,7.1-9.5,13-16.4,17.1c-7.2,4.1-15.4,6.2-23.8,6.1
	c-6.8,0-30.1-1.3-32.3-1.3s-16,0.2-16,0.2V8.5c0.8-0.2,2-0.5,3.5-0.9c2.1-0.4,4.2-0.8,6.4-1c0.6-0.1,2.6-0.3,5.2-0.5L21.5,6z
	 M67.8,120.5c4.7-2.8,8.5-6.9,11-11.8c2.8-5.4,4.1-11.4,4-17.4c0.1-6.1-1.2-12-4-17.4c-2.5-4.9-6.3-8.9-11-11.7
	C63,59.3,57.5,57.9,52,58c-5.5-0.1-10.9,1.4-15.7,4.1c-4.7,2.8-8.5,6.8-11,11.7c-2.7,5.4-4.1,11.4-4,17.4c-0.1,6,1.3,12,4,17.4
	c2.5,4.9,6.3,9,11,11.8c4.7,2.8,10.2,4.3,15.7,4.2C57.5,124.8,63,123.3,67.8,120.5z"/>
<path class="st0" d="M395.1,79.7c-0.8-4.7-2.4-9.2-4.7-13.4c-2.4-4.6-5.5-8.8-9.4-12.3c-2.1-1.9-4.3-3.6-6.7-5
	c-7.1-4.2-15.2-6.3-23.4-6.2c-8.3-0.1-16.4,2-23.5,6.2c-7,4.1-12.6,10.1-16.4,17.2c-4,7.7-6.1,16.2-6,24.8c-0.1,8.7,2,17.3,6.1,25
	c4,7.3,10,13.3,17.3,17.2c14.4,7.4,31.3,8.2,46.3,2.2c6-2.5,11.3-6.4,15.4-11.4l-3.6-4.4l0,0c-1.6-1.9-4-2.9-6.5-2.9
	c-1.8,0-3.5,0.5-4.9,1.6h-0.1c-5.7,4.1-12.5,6.1-20.5,6.1c-9,0-16.5-2.5-22.5-7.6s-9.6-11.8-10.6-20.1h54.9c2.6,0,5.2-0.1,7.7-0.4
	c2.5-0.5,4.7-1.7,6.6-3.4c2.2-2,3.7-4.6,4.4-7.5C395.6,83.5,395.6,81.6,395.1,79.7z M378.5,79.3c-0.4,1.7-1.3,3.1-2.8,4.1
	c-0.7,0.5-1.6,0.8-2.5,1c-0.3,0-3.6,0.1-3.6,0.1h-48c0.9-8.1,4.1-14.7,9.4-19.7c5.3-5,12-7.5,19.9-7.5c4.7-0.1,9.3,1,13.5,3.1
	c2.3,1.2,4.5,2.7,6.4,4.5c2.2,2,4,4.4,5.5,6.9C378,74.8,379.1,76.8,378.5,79.3z"/>
<path class="st0" d="M218,8.5c0.8-0.2,2.1-0.6,3.5-0.9c2.1-0.4,4.2-0.8,6.4-1c0.6-0.1,2.6-0.3,5.2-0.5l1.5-0.1v85.1l49.8-47.2h20
	L265.9,83l42.1,55.6h-20.3l-34.3-44.2c0,0-15.9,13.5-17.7,18.3c-0.8,2-1.2,4.2-1.3,6.4c0,8,0,19.5,0,19.5H218V8.5z"/>
<path class="st0" d="M408.4,8.5c0.8-0.2,2-0.6,3.5-0.9c2.1-0.4,4.2-0.8,6.4-1c0.6-0.1,2.6-0.3,5.2-0.5l1.5-0.1v51.3
	c3.5-4.6,8.2-8.2,13.5-10.5c5.9-2.6,12.3-3.9,18.7-3.8c11.6,0,20.8,3.5,27.6,10.5S495,70.7,495,84.1v54.5h-16.5V86.1
	c0-9.2-2.1-16.1-6.4-20.7c-4.2-4.6-10.3-7-18.2-7c-9,0-16,2.7-21.2,8.1c-5.2,5.4-7.7,13.2-7.8,23.3v48.8h-16.5V8.5z"/>
<path class="st1" d="M176.6,49c-1.5-1.9-3-3.7-4.6-5.4c-5.1-5.4-7.8-6.5-9.4-6.8c-1-0.2-2-0.3-3-0.2c-4.3,0.2-7.3,2.5-9.9,4.5
	c-2.6,2-4.9,4.5-6.8,7.2c0,0.1-0.1,0.2-0.1,0.2v26.1c0,0.2,0.1,0.3,0.2,0.4c0.1,0,0.1,0,0.2,0c0.1,0,0.2,0,0.2-0.1l33.1-25.3
	C176.8,49.4,176.8,49.2,176.6,49C176.7,49,176.7,49,176.6,49z"/>
<path class="st2" d="M200.1,55.5c-0.6-0.8-1.2-1.6-2-2.3c-3.2-2.9-6.9-3.4-10.1-3.8c-3.3-0.4-6.6-0.3-9.9,0.3
	c-0.1,0-0.2,0.1-0.2,0.1l-18.5,18.5c-0.1,0.1-0.1,0.3-0.1,0.4c0.1,0.1,0.2,0.3,0.3,0.3l41.3,5.5h0.1c0.2,0,0.4-0.2,0.4-0.4
	c0.3-2.4,0.5-4.8,0.6-7.2C202.1,59.5,201,56.8,200.1,55.5z"/>
<path class="st3" d="M213.6,92.2c-0.2-4.3-2.5-7.2-4.5-9.9c-2-2.6-4.5-4.9-7.2-6.8c-0.1,0-0.1-0.1-0.2-0.1h-26.2
	c-0.2,0-0.3,0.1-0.4,0.2c-0.1,0.1-0.1,0.3,0,0.4l25.3,33.1c0.1,0.1,0.2,0.2,0.3,0.2c0.1,0,0.2,0,0.2-0.1c1.9-1.4,3.7-3,5.5-4.6
	c5.4-5.1,6.5-7.8,6.8-9.4C213.5,94.2,213.6,93.2,213.6,92.2z"/>
<path class="st4" d="M200.4,110.7c0-0.1-0.1-0.2-0.1-0.2L181.8,92c-0.1-0.1-0.3-0.2-0.4-0.1c-0.2,0-0.3,0.2-0.3,0.3l-5.5,41.3
	c0,0.2,0.1,0.4,0.4,0.5c2.4,0.3,4.8,0.5,7.1,0.6h1.8c6.1,0,8.4-1,9.7-1.9c0.8-0.6,1.6-1.2,2.3-2c2.9-3.2,3.4-6.9,3.8-10.1
	C201.2,117.3,201,113.9,200.4,110.7z"/>
<path class="st5" d="M174.4,107.7c-0.1-0.1-0.3-0.1-0.4,0L140.9,133c-0.2,0.1-0.2,0.4-0.1,0.6c1.4,1.9,3,3.7,4.6,5.5
	c5.1,5.4,7.8,6.5,9.4,6.8c0.8,0.2,1.6,0.2,2.4,0.2h0.6c4.3-0.2,7.3-2.5,9.9-4.5c2.6-2,4.9-4.5,6.8-7.2c0-0.1,0.1-0.2,0.1-0.2v-26.1
	C174.6,107.9,174.6,107.8,174.4,107.7z"/>
<path class="st6" d="M158.2,114c0-0.2-0.2-0.3-0.3-0.3l-41.3-5.5c-0.2,0-0.4,0.1-0.5,0.4c-0.3,2.4-0.5,4.8-0.6,7.1
	c-0.2,7.4,1,10.1,1.8,11.5c0.6,0.8,1.2,1.6,2,2.3c3.2,2.9,6.9,3.4,10.1,3.8c1.3,0.2,2.7,0.3,4,0.2c2,0,4-0.2,5.9-0.6
	c0.1,0,0.2-0.1,0.2-0.1l18.5-18.5C158.3,114.3,158.3,114.1,158.2,114z"/>
<path class="st7" d="M142.3,106.6L117,73.5c-0.1-0.2-0.4-0.2-0.6-0.1c-1.9,1.5-3.7,3-5.4,4.6c-5.4,5.1-6.5,7.8-6.8,9.4
	c-0.2,1-0.3,2-0.2,3c0.2,4.3,2.5,7.2,4.5,9.9c2,2.6,4.5,4.9,7.2,6.8c0.1,0.1,0.2,0.1,0.2,0.1H142c0.2,0,0.4-0.2,0.4-0.4
	C142.4,106.7,142.4,106.6,142.3,106.6L142.3,106.6z"/>
<path class="st8" d="M141.5,48.8c-2.4-0.3-4.8-0.5-7.1-0.6c-7.4-0.2-10.1,0.9-11.5,1.8c-0.8,0.6-1.6,1.2-2.3,2
	c-2.9,3.2-3.4,6.9-3.8,10.1c-0.4,3.3-0.3,6.6,0.3,9.9c0,0.1,0.1,0.2,0.1,0.2l18.5,18.5c0.1,0.1,0.2,0.1,0.3,0.1c0,0,0.1,0,0.1,0
	c0.2,0,0.3-0.2,0.3-0.3l5.5-41.3C141.9,49.1,141.8,48.8,141.5,48.8C141.5,48.8,141.5,48.8,141.5,48.8z"/>
</svg>
