<?xml version="1.0" encoding="utf-8"?>
<!-- Generator: Adobe Illustrator 24.2.1, SVG Export Plug-In . SVG Version: 6.00 Build 0)  -->
<svg version="1.1" id="Layer_1" xmlns="http://www.w3.org/2000/svg" xmlns:xlink="http://www.w3.org/1999/xlink" x="0px" y="0px"
	 viewBox="0 0 761 241" style="enable-background:new 0 0 761 241;" xml:space="preserve">
<style type="text/css">
	.st0{fill:#646464;}
	.st1{fill:#FFCA00;}
	.st2{fill:#E70488;}
</style>
<path class="st0" d="M260.9,153.2c-10.3,0-20.7-4.2-27.3-12.6v45H213V74.5h18.6l0.7,12.2c6.4-9.4,17.7-14.3,28.5-14.3
	c20.7,0,36,17.4,36,40.4S281.6,153.2,260.9,153.2z M254.5,87.7c-12,0-21.8,9.4-21.8,25.2s9.7,25.2,21.8,25.2s21.8-9.4,21.8-25.2
	S266.5,87.7,254.5,87.7z"/>
<path class="st0" d="M374.4,151.1l-0.7-12.2c-6.4,9.4-17.7,14.4-28.5,14.3c-20.7,0-36-17.4-36-40.4s15.2-40.4,36-40.4
	c10.8,0,22.1,5,28.5,14.4l0.7-12.2H393v76.5H374.4z M351.5,87.7c-12,0-21.8,9.4-21.8,25.2s9.7,25.2,21.8,25.2s21.8-9.4,21.8-25.2
	S363.6,87.7,351.5,87.7L351.5,87.7z"/>
<path class="st0" d="M464.9,151.1v-42.3c0-14.9-5.1-19.8-14.5-19.8c-9.8,0-20.4,8.9-20.4,19.5v42.7h-20.6V74.6h18.8l0.9,14.2
	c5.1-9.8,16.6-16.3,28.4-16.3c20.4,0,28,14.2,28,33.1v45.5L464.9,151.1z"/>
<path class="st0" d="M560.8,151.1l-0.7-12.2c-6.4,9.4-17.7,14.4-28.5,14.4c-20.7,0-36-17.4-36-40.4s15.2-40.4,36-40.4
	c10.3,0,20.7,4.3,27.3,12.6V44.8h20.6v106.3H560.8z M537.9,87.7c-12,0-21.8,9.4-21.8,25.1s9.7,25.2,21.8,25.2s21.8-9.4,21.8-25.1
	S550,87.7,537.9,87.7z"/>
<path class="st0" d="M656.6,151.1l-0.7-12.2c-6.4,9.4-17.7,14.3-28.5,14.3c-20.7,0-36-17.4-36-40.4s15.2-40.4,36-40.4
	c10.8,0,22.2,5,28.5,14.4l0.7-12.2h18.6v76.5L656.6,151.1z M633.8,87.7c-12,0-21.8,9.4-21.8,25.2s9.8,25.1,21.8,25.1
	s21.8-9.4,21.8-25.2S645.8,87.7,633.8,87.7L633.8,87.7z"/>
<path class="st0" d="M720.7,153.6c-10.8-0.1-21.4-3.1-30.7-8.7l3.4-14.2c6.2,3.7,15.6,8.5,26.9,8.5c8.2,0,13.8-2.5,13.8-8.9
	c0-5.5-5.8-7.4-16.3-9.9c-18.8-4.1-25.5-14-25.5-24.8c0-12.1,9.4-23.4,30.1-23.4c12.6,0,23.6,5.5,26,6.9l-3.4,13.5
	c-6.7-4-14.3-6.2-22.1-6.4c-8.3,0-12.4,2.8-12.4,7.4c0,5.1,5.3,7.4,13.5,9.4c20.2,4.2,28.3,13.6,28.3,23.9
	C752.5,143.5,740.4,153.6,720.7,153.6z"/>
<rect x="44.9" y="22.4" class="st0" width="24.1" height="50"/>
<rect x="44.9" y="125.2" class="st0" width="24.1" height="50"/>
<rect x="44.9" y="87" class="st1" width="24.1" height="23.6"/>
<rect x="6.2" y="63.6" class="st0" width="24.1" height="166.3"/>
<rect x="82.8" y="166.4" class="st0" width="24.1" height="50"/>
<rect x="82.8" y="63.6" class="st0" width="24.1" height="50"/>
<rect x="82.8" y="128.2" class="st2" width="24.1" height="23.6"/>
<rect x="120.7" y="9.4" class="st0" width="24.1" height="166.3"/>
</svg>
