<?xml version="1.0" encoding="utf-8"?>
<!-- Generator: Adobe Illustrator 24.2.1, SVG Export Plug-In . SVG Version: 6.00 Build 0)  -->
<svg version="1.1"
	 id="svg2" inkscape:version="0.43" sodipodi:docbase="/home/sdeibel" sodipodi:docname="logo-python-generic.svg" sodipodi:version="0.32" xmlns:cc="http://web.resource.org/cc/" xmlns:dc="http://purl.org/dc/elements/1.1/" xmlns:inkscape="http://www.inkscape.org/namespaces/inkscape" xmlns:rdf="http://www.w3.org/1999/02/22-rdf-syntax-ns#" xmlns:sodipodi="http://inkscape.sourceforge.net/DTD/sodipodi-0.dtd" xmlns:svg="http://www.w3.org/2000/svg"
	 xmlns="http://www.w3.org/2000/svg" xmlns:xlink="http://www.w3.org/1999/xlink" x="0px" y="0px" viewBox="0 0 483.9 148"
	 style="enable-background:new 0 0 483.9 148;" xml:space="preserve">
<style type="text/css">
	.st0{fill:#646464;}
	.st1{fill:url(#path1948_1_);}
	.st2{fill:url(#path1950_1_);}
	.st3{opacity:0.4438;fill:url(#path1894_1_);enable-background:new    ;}
</style>
<sodipodi:namedview  bordercolor="#666666" borderopacity="1.0" id="base" inkscape:current-layer="svg2" inkscape:cx="243.02499" inkscape:cy="71.887497" inkscape:pageopacity="0.0" inkscape:pageshadow="2" inkscape:window-height="543" inkscape:window-width="791" inkscape:window-x="0" inkscape:window-y="0" inkscape:zoom="1.4340089" pagecolor="#ffffff">
	</sodipodi:namedview>
<g id="g2303">
	<path id="path46" class="st0" d="M184.6,61.9c0-14.6-4.2-22-12.5-22.4c-3.3-0.2-6.5,0.4-9.7,1.6c-2.5,0.9-4.2,1.8-5.1,2.7v34.8
		c5.3,3.3,10,4.9,14.1,4.6C180.3,82.6,184.6,75.5,184.6,61.9z M194.9,62.5c0,7.4-1.7,13.5-5.2,18.4c-3.9,5.5-9.3,8.4-16.2,8.5
		c-5.2,0.2-10.5-1.5-16.1-4.9v31.6l-8.9-3.2V42.9c1.5-1.8,3.3-3.3,5.6-4.6c5.3-3.1,11.7-4.7,19.3-4.8l0.1,0.1
		c6.9-0.1,12.3,2.8,16,8.5C193.1,47.5,194.9,54.2,194.9,62.5z"/>
	<path id="path48" class="st0" d="M249.3,83.3c0,9.9-1,16.8-3,20.6c-2,3.8-5.8,6.9-11.4,9.1c-4.6,1.8-9.5,2.8-14.8,2.9l-1.5-5.6
		c5.4-0.7,9.2-1.5,11.3-2.2c4.3-1.5,7.3-3.7,8.9-6.7c1.3-2.4,1.9-7.1,1.9-14v-2.3c-6.1,2.8-12.5,4.1-19.2,4.1
		c-4.4,0-8.3-1.4-11.6-4.1c-3.7-3-5.6-6.8-5.6-11.5V36.6l8.9-3.1v37.3c0,4,1.3,7.1,3.9,9.2c2.6,2.2,5.9,3.2,10,3.1
		c4.1-0.1,8.5-1.7,13.1-4.8V34.9h8.9V83.3z"/>
	<path id="path50" class="st0" d="M284.1,89c-1.1,0.1-2,0.1-2.9,0.1c-5,0-9-1.2-11.8-3.6c-2.8-2.4-4.2-5.7-4.2-10V40.5h-6.1v-5.6
		h6.1V20l8.9-3.2v18.1h10v5.6h-10v34.8c0,3.3,0.9,5.7,2.7,7.1c1.5,1.1,4,1.8,7.3,2V89z"/>
	<path id="path52" class="st0" d="M338,88.3h-8.9V53.9c0-3.5-0.8-6.5-2.4-9c-1.9-2.8-4.5-4.3-7.8-4.3c-4.1,0-9.2,2.2-15.3,6.5v41.2
		h-8.9V6.1l8.9-2.8v37.4c5.7-4.1,11.9-6.2,18.7-6.2c4.7,0,8.5,1.6,11.5,4.8c2.9,3.2,4.4,7.1,4.4,11.8V88.3L338,88.3z"/>
	<path id="path54" class="st0" d="M385.4,60.5c0-5.6-1.1-10.2-3.2-13.9c-2.5-4.5-6.4-6.8-11.7-7c-9.8,0.6-14.6,7.6-14.6,21
		c0,6.2,1,11.3,3.1,15.4c2.6,5.3,6.5,7.8,11.8,7.8C380.5,83.7,385.4,75.9,385.4,60.5z M395.1,60.6c0,8-2,14.6-6.1,19.9
		c-4.5,5.9-10.7,8.9-18.5,8.9c-7.8,0-13.9-3-18.3-8.9c-4-5.3-6-11.9-6-19.9c0-7.5,2.2-13.8,6.5-18.9c4.6-5.4,10.5-8.2,17.9-8.2
		c7.4,0,13.4,2.7,18.1,8.2C393,46.8,395.1,53.1,395.1,60.6z"/>
	<path id="path56" class="st0" d="M446.2,88.3h-8.9V51.9c0-4-1.2-7.1-3.6-9.3c-2.4-2.2-5.6-3.3-9.6-3.2c-4.2,0.1-8.3,1.5-12.1,4.1
		v44.8h-8.9V42.4c5.1-3.7,9.8-6.2,14.2-7.3c4.1-1.1,7.7-1.6,10.7-1.6c2.1,0,4.1,0.2,6,0.6c3.5,0.8,6.3,2.3,8.5,4.5
		c2.4,2.4,3.7,5.4,3.7,8.8V88.3z"/>
	
		<linearGradient id="path1948_1_" gradientUnits="userSpaceOnUse" x1="108.1201" y1="-164.5774" x2="217.1364" y2="-258.3713" gradientTransform="matrix(0.5625 0 0 -0.568 -57.9577 -83.8781)">
		<stop  offset="0" style="stop-color:#5A9FD4"/>
		<stop  offset="1" style="stop-color:#306998"/>
	</linearGradient>
	<path id="path1948" class="st1" d="M60.5,6.4c-4.6,0-9,0.4-12.8,1.1c-11.3,2-13.4,6.2-13.4,13.9v10.2h26.8v3.4H34.3H24.2
		c-7.8,0-14.6,4.7-16.8,13.6C5,58.9,4.9,65.2,7.5,75.9c1.9,7.9,6.5,13.6,14.3,13.6h9.2V77.2c0-8.8,7.7-16.7,16.7-16.7h26.8
		c7.5,0,13.4-6.1,13.4-13.6V21.4c0-7.3-6.1-12.7-13.4-13.9C69.9,6.7,65.1,6.4,60.5,6.4z M46,14.6c2.8,0,5,2.3,5,5.1
		c0,2.8-2.3,5.1-5,5.1c-2.8,0-5-2.3-5-5.1C41,16.9,43.2,14.6,46,14.6z"/>
	
		<linearGradient id="path1950_1_" gradientUnits="userSpaceOnUse" x1="259.2829" y1="-315.1393" x2="220.3532" y2="-260.0605" gradientTransform="matrix(0.5625 0 0 -0.568 -57.9577 -83.8781)">
		<stop  offset="0" style="stop-color:#FFD43B"/>
		<stop  offset="1" style="stop-color:#FFE873"/>
	</linearGradient>
	<path id="path1950" class="st2" d="M91.2,35.1V47c0,9.2-7.8,17-16.8,17H47.7c-7.3,0-13.4,6.3-13.4,13.6v25.5
		c0,7.3,6.3,11.5,13.4,13.6c8.5,2.5,16.6,2.9,26.8,0c6.8-2,13.4-5.9,13.4-13.6V92.9H61.1v-3.4h26.8h13.4c7.8,0,10.7-5.4,13.4-13.6
		c2.8-8.4,2.7-16.5,0-27.2c-1.9-7.8-5.6-13.6-13.4-13.6H91.2z M76.2,99.7c2.8,0,5,2.3,5,5.1c0,2.8-2.3,5.1-5,5.1c-2.8,0-5-2.3-5-5.1
		C71.1,102,73.4,99.7,76.2,99.7z"/>
	<path id="text3004" class="st0" d="M463.6,26.9h1.6v-9.8h3.7v-1.2h-9v1.2h3.7V26.9 M470.2,26.9h1.3V18l2.9,8.9h1.5l3-8.9v8.9h1.5
		v-11h-1.9l-3.3,9.4l-2.8-9.4h-2.2V26.9"/>
	
		<radialGradient id="path1894_1_" cx="-1453.958" cy="217.4678" r="29.0369" gradientTransform="matrix(1.749057e-08 -0.2399 -1.0547 -3.791546e-07 290.7645 -214.7749)" gradientUnits="userSpaceOnUse">
		<stop  offset="0" style="stop-color:#B8B8B8;stop-opacity:0.498"/>
		<stop  offset="1" style="stop-color:#7F7F7F;stop-opacity:0"/>
	</radialGradient>
	<path id="path1894" class="st3" d="M97.3,134.1c0,3.8-16.1,7-35.9,7s-35.9-3.1-35.9-7c0-3.8,16.1-7,35.9-7S97.3,130.2,97.3,134.1z"
		/>
</g>
</svg>
